<svg xmlns="http://www.w3.org/2000/svg" width="148.61" height="80" viewBox="208.135 -12.248 148.61 80"><path fill="#006BB5" d="M211.531 67.752H353.33c1.875 0 3.415-1.521 3.415-3.401V-8.846c0-1.879-1.54-3.401-3.415-3.401H211.531a3.398 3.398 0 00-3.396 3.401v73.197a3.398 3.398 0 003.396 3.401"/><path fill="#FFF" d="M295.666 38.279c-1.085.442-2.179.666-3.272.666-1.719 0-3.271-.293-4.632-.9-1.387-.584-2.556-1.412-3.493-2.461-.938-1.055-1.661-2.299-2.188-3.711a14.236 14.236 0 01-.741-4.589c0-1.683.261-3.243.741-4.679.526-1.436 1.25-2.696 2.188-3.779a9.864 9.864 0 013.493-2.513c1.36-.612 2.913-.923 4.632-.923 1.169 0 2.279.183 3.356.527a9.45 9.45 0 012.956 1.533c.875.673 1.575 1.495 2.144 2.485.579.996.919 2.133 1.055 3.41h-4.748c-.289-1.268-.856-2.213-1.699-2.838-.83-.625-1.852-.943-3.063-.943-1.094 0-2.034.205-2.813.636a5.373 5.373 0 00-1.897 1.743c-.494.716-.84 1.544-1.071 2.47-.223.932-.313 1.877-.313 2.871 0 .951.09 1.86.313 2.755.231.896.577 1.705 1.071 2.422a5.596 5.596 0 001.897 1.719c.778.428 1.719.639 2.813.639 1.638 0 2.913-.406 3.825-1.242.869-.837 1.406-2.035 1.562-3.615h-4.999V26.28h9.456v12.162h-3.135l-.525-2.543c-.873 1.13-1.854 1.915-2.913 2.38m20.302-22.343c1.431 0 2.794.234 4.046.695a8.568 8.568 0 013.236 2.08c.938.926 1.643 2.072 2.155 3.471.501 1.376.769 3.013.769 4.889 0 1.641-.196 3.148-.635 4.531-.414 1.393-1.039 2.584-1.896 3.594-.861 1.016-1.92 1.801-3.205 2.381-1.25.588-2.744.864-4.47.864h-9.726V15.936h9.726zm-.367 18.353c.721 0 1.409-.114 2.104-.344.66-.234 1.25-.625 1.795-1.162.521-.529.938-1.225 1.25-2.089.313-.863.469-1.912.469-3.155 0-1.135-.097-2.159-.313-3.083a6.723 6.723 0 00-1.094-2.349c-.513-.646-1.17-1.142-2.018-1.485-.814-.35-1.845-.528-3.059-.528h-3.527v14.195h4.393zm29.837-18.353v4.158h-10.862v5.208h9.413v3.837h-9.413v9.302h-4.966V15.936zm-59.469 28.075v1.136h-3.263v1.308h2.978v1.044h-2.978v1.516h3.325v1.135h-4.656v-6.138h4.594zm-2.145-2.071l-.895 1.519h.845l1.397-1.519h-1.347zm6.952 3.761v.822h-.882v2.188c0 .212.023.35.086.424.07.064.227.097.426.097.063 0 .121-.006.188-.015.081 0 .138 0 .182-.018v.949c-.101.006-.208.023-.338.031a4.58 4.58 0 01-.381.016c-.163 0-.354-.021-.531-.041-.177-.037-.321-.078-.434-.156a.796.796 0 01-.302-.313 1.208 1.208 0 01-.131-.547v-2.615h-.722v-.822h.722v-1.328h1.234v1.328h.883z"/><path fill="#FFF" d="M292.238 49.076c.185.182.466.263.781.263.254 0 .469-.052.644-.179.189-.127.294-.256.334-.391h1.063c-.166.525-.416.916-.791 1.148-.341.227-.781.339-1.271.339-.372 0-.685-.062-.95-.173a2.065 2.065 0 01-.72-.477 2.042 2.042 0 01-.439-.74c-.123-.275-.161-.59-.161-.938 0-.336.04-.644.167-.938.094-.275.25-.527.461-.744.181-.193.423-.365.727-.486.257-.121.563-.176.916-.176.37 0 .71.074.972.214.3.14.531.337.688.591.192.248.313.523.394.836.075.313.122.65.086.992h-3.207c.024.398.139.687.306.859m1.395-2.332c-.146-.164-.383-.245-.69-.245a.998.998 0 00-.474.103c-.135.067-.231.15-.313.236a.843.843 0 00-.156.311c-.032.115-.063.209-.071.3h2.004c-.058-.308-.16-.544-.3-.705m2.98-1.043v.599h.025c.162-.227.362-.401.6-.525.221-.13.469-.188.774-.188.263 0 .532.045.763.156.23.115.413.309.518.584.133-.193.31-.375.532-.52.226-.145.507-.221.816-.221.235 0 .443.026.659.078.189.063.371.156.507.271.135.129.268.299.349.506.082.197.1.437.1.731v2.976h-1.203V47.62c0-.144-.009-.278-.027-.415-.018-.135-.037-.254-.105-.342a.36.36 0 00-.223-.228c-.103-.069-.236-.093-.415-.093-.156 0-.313.031-.391.096a.627.627 0 00-.257.265 1.137 1.137 0 00-.134.36c0 .129-.013.275-.013.401v2.483h-1.237v-2.885a.831.831 0 00-.075-.353.53.53 0 00-.224-.272c-.089-.064-.245-.096-.428-.096-.055 0-.13.018-.223.039a.78.78 0 00-.301.141 1.384 1.384 0 00-.223.307 1.48 1.48 0 00-.09.541v2.578h-1.217V45.7h1.143zm7.343 0v.566h.003a1.44 1.44 0 01.579-.525c.227-.111.489-.156.743-.156.37 0 .663.063.927.193.248.127.456.313.629.521.163.224.274.474.356.771.081.275.119.584.119.896 0 .307-.038.588-.119.859a2.464 2.464 0 01-.351.74 2.224 2.224 0 01-.624.506c-.231.123-.541.185-.856.185-.272 0-.536-.062-.768-.174a1.519 1.519 0 01-.563-.486h-.003V51.7h-1.247v-5.998h1.175zm1.575 3.516a.878.878 0 00.335-.313c.085-.115.133-.271.188-.442.009-.181.036-.345.036-.532 0-.168-.027-.354-.043-.513-.06-.181-.111-.333-.201-.466a.937.937 0 00-.805-.452c-.229 0-.385.044-.523.129a1.153 1.153 0 00-.33.323 1.08 1.08 0 00-.156.452 2.137 2.137 0 00-.072.526c0 .188.03.352.072.532.03.171.081.327.166.442.085.135.215.234.341.313.126.081.299.121.512.121a.875.875 0 00.48-.12m2.094-2.264c.129-.276.282-.529.469-.736.221-.203.466-.359.728-.475.291-.109.604-.156.95-.156.354 0 .666.047.956.156.267.115.515.271.728.475.192.207.347.46.469.736a3.5 3.5 0 01.156.977c0 .35-.07.668-.156.961a2.43 2.43 0 01-.469.73 2.164 2.164 0 01-.728.469c-.29.105-.603.167-.956.167a2.76 2.76 0 01-.95-.167 2.283 2.283 0 01-.728-.469 2.71 2.71 0 01-.469-.73c-.078-.293-.156-.611-.156-.961 0-.354.078-.678.156-.977m1.119 1.487c.056.179.103.327.188.464a.859.859 0 00.337.313.981.981 0 00.503.121c.197 0 .372-.04.51-.121a.869.869 0 00.343-.313c.085-.137.133-.285.188-.464.019-.161.035-.335.035-.511 0-.182-.017-.354-.035-.526-.056-.177-.104-.331-.188-.452a.9.9 0 00-.343-.323.95.95 0 00-.51-.129.927.927 0 00-.503.129.882.882 0 00-.337.323c-.085.121-.132.275-.188.452a3.64 3.64 0 00-.036.526c0 .176.011.35.036.511m8.805 1.13c-.156.244-.316.427-.549.526s-.508.16-.788.16c-.345 0-.625-.062-.887-.19a1.692 1.692 0 01-.622-.535 2.181 2.181 0 01-.359-.748 3.208 3.208 0 01-.149-.895c0-.309.065-.584.149-.863.08-.281.192-.531.359-.736.167-.216.354-.391.608-.51.254-.133.524-.193.859-.193.281 0 .517.047.753.156.232.115.428.277.554.506h.027v-2.237h1.214v6.138h-1.164v-.579h-.005zm-.058-2.187a1.2 1.2 0 00-.179-.448.805.805 0 00-.313-.313.98.98 0 00-.494-.124c-.207 0-.363.041-.52.124a.803.803 0 00-.313.32c-.08.128-.156.284-.188.44-.048.176-.048.35-.048.541 0 .162 0 .338.055.512.025.166.102.318.182.463.083.125.215.24.337.318.132.08.288.121.495.121a.978.978 0 00.494-.121.76.76 0 00.313-.313c.08-.137.156-.289.179-.469.055-.158.058-.35.058-.526s-.003-.362-.058-.525m3.027 1.693c.185.182.466.263.781.263.254 0 .469-.052.643-.179.19-.127.295-.256.335-.391h1.063c-.165.525-.416.916-.79 1.148-.341.227-.781.339-1.272.339a2.44 2.44 0 01-.949-.173 2.061 2.061 0 01-.719-.477 2.045 2.045 0 01-.441-.74c-.123-.275-.16-.59-.16-.938 0-.336.04-.644.167-.938.094-.275.25-.527.461-.744.182-.193.423-.365.727-.486.257-.121.563-.176.915-.176.371 0 .711.074.973.214.3.14.532.337.688.591.191.248.313.523.393.836.076.313.122.65.086.992h-3.207c.025.398.138.687.306.859m1.395-2.332c-.146-.164-.382-.245-.69-.245a.991.991 0 00-.473.103c-.137.067-.232.15-.313.236a.813.813 0 00-.156.311c-.034.115-.063.209-.072.3h2.004c-.057-.308-.16-.544-.3-.705m3.71.326c.027-.287.095-.525.207-.711a2.18 2.18 0 01.485-.461c.216-.119.428-.197.677-.238.244-.055.477-.074.713-.074.232 0 .469.006.701.037.229.041.423.098.625.197.169.078.323.211.469.377.099.17.156.373.156.641v2.316c0 .203.01.395.047.572.033.193.054.322.109.422h-1.24c-.01-.072-.021-.15-.043-.219s-.039-.139-.043-.21c-.178.2-.402.335-.684.415a2.638 2.638 0 01-.803.122c-.22 0-.395-.024-.595-.077a1.666 1.666 0 01-.488-.244 1.31 1.31 0 01-.323-.406c-.076-.168-.097-.367-.097-.594 0-.262.024-.459.119-.62.095-.169.214-.306.362-.392.131-.109.294-.18.477-.229.159-.041.357-.078.545-.119.165-.024.36-.037.549-.064.156-.014.313-.045.469-.077a.868.868 0 00.313-.146.34.34 0 00.115-.296c0-.119-.034-.234-.056-.313-.06-.078-.114-.129-.182-.174s-.153-.068-.258-.091c-.089-.011-.174-.011-.301-.011-.244 0-.413.041-.569.152-.136.095-.218.279-.236.514h-1.22zm2.823.897c-.039.043-.115.078-.195.117l-.232.057c-.095.023-.196.026-.305.045-.088.016-.172.018-.281.046-.099.011-.195.042-.275.063a.927.927 0 00-.232.115.525.525 0 00-.156.182.676.676 0 00-.068.285c0 .105.032.205.068.277.045.071.086.141.156.182a.68.68 0 00.237.08c.099.027.203.035.308.035.236 0 .407-.037.549-.115a.913.913 0 00.302-.297.832.832 0 00.092-.332c.022-.115.034-.215.034-.276v-.464zm3.867-1.468c-.209 0-.376.048-.493.14a.963.963 0 00-.328.342c-.086.132-.134.285-.188.461-.009.176-.036.332-.036.5 0 .164.027.33.036.494.054.158.097.313.174.449.077.139.197.25.314.332a.928.928 0 00.488.121c.281 0 .501-.08.657-.236.16-.158.27-.391.313-.666h1.174c-.08.588-.296 1.016-.636 1.328-.382.311-.843.469-1.396.479l-.236.343a.972.972 0 01.313-.041c.08 0 .176.01.28.041a.676.676 0 01.265.107.464.464 0 01.16.186.418.418 0 01.076.27.948.948 0 01-.076.412c-.08.119-.156.2-.236.275a.77.77 0 01-.313.133 2.192 2.192 0 01-.389.038c-.137 0-.236-.006-.34-.015a.903.903 0 01-.279-.041c-.076-.007-.148-.037-.217-.052a2.745 2.745 0 00-.224-.078l.195-.417c.083.041.176.078.315.115.104.028.236.041.393.041a.355.355 0 00.237-.073c.075-.042.104-.12.104-.217 0-.104-.028-.179-.108-.216a.427.427 0 00-.232-.06.875.875 0 00-.338.06l-.194-.201.452-.621a2.315 2.315 0 01-.803-.232 1.784 1.784 0 01-.608-.471 1.875 1.875 0 01-.397-.689 2.335 2.335 0 01-.143-.852 2.8 2.8 0 01.156-.959c.076-.297.232-.547.434-.768.191-.207.424-.377.719-.5.263-.122.589-.176.955-.176.257 0 .522.035.771.099.246.063.456.173.635.313.201.135.357.317.469.525.133.203.195.459.224.74h-1.209c-.081-.504-.376-.763-.89-.763m2.329.571a1.57 1.57 0 01.203-.711c.124-.189.28-.346.489-.461.184-.119.416-.197.652-.238.232-.055.478-.074.731-.074.216 0 .438.006.675.037.232.041.455.098.625.197.201.078.354.211.469.377.13.17.181.373.181.641v2.316c0 .203.018.395.052.572 0 .193.056.322.101.422h-1.229a.512.512 0 01-.043-.219 1.25 1.25 0 01-.047-.21c-.188.2-.42.335-.679.415a2.803 2.803 0 01-.823.122c-.199 0-.404-.024-.574-.077a1.354 1.354 0 01-.488-.244 1.268 1.268 0 01-.328-.406 1.42 1.42 0 01-.107-.594c0-.262.04-.459.135-.62.095-.169.185-.306.334-.392.156-.109.313-.18.469-.229.195-.041.393-.078.549-.119.196-.024.389-.037.545-.064.182-.014.34-.045.469-.077a.822.822 0 00.333-.146.345.345 0 00.131-.296.769.769 0 00-.071-.313.581.581 0 00-.167-.174.765.765 0 00-.258-.091c-.104-.011-.2-.011-.3-.011-.245 0-.449.041-.579.152-.126.095-.208.279-.245.514h-1.205zm2.641-2.072c-.127 0-.266-.012-.359-.059a2.436 2.436 0 01-.313-.139 3.005 3.005 0 00-.313-.152.677.677 0 00-.287-.068.355.355 0 00-.262.116c-.053.077-.078.187-.123.302h-.537c.026-.119.035-.26.109-.391a.864.864 0 01.184-.35c.091-.117.205-.197.301-.268a.992.992 0 01.405-.087c.13 0 .222.006.348.042.095.037.204.082.322.137.085.055.183.098.286.135a.761.761 0 00.268.043c.11 0 .191-.021.236-.08.076-.055.113-.156.156-.276h.545c-.036.144-.076.276-.114.417a1.39 1.39 0 01-.188.352 1.298 1.298 0 01-.26.248 1.01 1.01 0 01-.404.078m.181 2.969a3.156 3.156 0 01-.216.117c-.077.018-.162.039-.248.057-.076.023-.161.026-.269.045-.109.016-.2.018-.281.046-.099.011-.196.042-.292.063a.541.541 0 00-.23.115c-.06.054-.098.105-.161.182-.017.078-.049.174-.049.285 0 .105.032.205.049.277.063.071.105.141.169.182a.54.54 0 00.243.08c.1.027.196.035.276.035.236 0 .438-.037.555-.115a.907.907 0 00.303-.297c.078-.109.095-.22.117-.332.022-.115.034-.215.034-.276v-.464zm1.74-1.014c.128-.276.281-.529.462-.736.227-.203.459-.359.732-.475.275-.109.588-.156.949-.156.34 0 .652.047.958.156.266.115.513.271.712.475.208.207.361.46.469.736.101.299.156.623.156.977 0 .35-.056.668-.156.961a1.965 1.965 0 01-.469.73 1.982 1.982 0 01-.712.469 2.905 2.905 0 01-.958.167c-.361 0-.674-.062-.949-.167a2.235 2.235 0 01-.732-.469 2.82 2.82 0 01-.462-.73 3.144 3.144 0 01-.167-.961c0-.354.075-.678.167-.977m1.119 1.487c.039.179.1.327.188.464a.824.824 0 00.32.313c.146.081.313.121.518.121.19 0 .374-.04.505-.121a.945.945 0 00.349-.313c.086-.137.133-.285.188-.464.009-.161.036-.335.036-.511 0-.182-.027-.354-.036-.526-.055-.177-.102-.331-.188-.452a.97.97 0 00-.349-.323.93.93 0 00-.505-.129.981.981 0 00-.518.129.848.848 0 00-.32.323 1.223 1.223 0 00-.188.452c-.041.173-.041.345-.041.526-.001.176-.001.35.041.511m3.73.386h1.361v1.322h-1.361z"/><path fill="#FFF" d="M256.58 56.413c-.803 0-3.562-.146-5.674-2.077-1.563-1.455-2.131-3.575-2.206-6.291-.066-2.54.785-4.757 2.519-6.563 3.206-3.268 8.362-4.141 8.96-4.141h.34l.228.002v.742l-.228-.004a48.423 48.423 0 00-.307-.006l-.032.002c-.547 0-5.42.826-8.411 3.914-1.64 1.664-2.425 3.691-2.344 6.027.075 2.519.544 4.455 1.977 5.77 2.239 2.039 5.367 1.898 5.386 1.895h88.73v.723h-88.697c-.021.001-.113.007-.241.007m-18.011 0c.803 0 3.275-.146 5.388-2.077 1.585-1.455 2.729-3.575 2.803-6.291.067-2.54-.785-4.757-2.564-6.563-3.163-3.268-8.355-4.141-8.914-4.141h-.384l-.184.002v.742l.198-.004.295-.006.074.002c.547 0 5.395.826 8.404 3.914 1.597 1.664 2.388 3.691 2.329 6.027-.067 2.519-1.12 4.455-2.53 5.77-2.241 2.039-5.077 1.898-5.122 1.895h-18.878v.723h18.848c.017.001.109.007.237.007"/><path fill="#FFF100" d="M234.874 38.205c0-.129.02-.274.02-.395a7.278 7.278 0 01-3.019-1.613c-.263.207-.5.446-.673.732.047.239.098.49.098.742a3.12 3.12 0 01-.503 1.673 3.036 3.036 0 002.168 2.171c.267-.695.91-1.203 1.693-1.203.467 0 .86.162 1.173.43a3.94 3.94 0 00.233-.275 2.763 2.763 0 01-1.19-2.262"/><path fill="#FFF100" d="M227.141 39.069c0 .507-.202.97-.503 1.324.102.06.206.11.287.151a2.213 2.213 0 011.729-.838 2.24 2.24 0 011.384.469c.298-.223.557-.508.76-.831a3.454 3.454 0 01-.107-.753 3 3 0 01.513-1.662 2.787 2.787 0 00-.296-.748 4.402 4.402 0 01-1.719.342 4.352 4.352 0 01-2.344-.666 3.058 3.058 0 01-1.169.238c-.081 0-.147-.004-.206-.004a2.772 2.772 0 00-.351.938c1.1.006 2.022.924 2.022 2.04"/><path fill="#F9A51A" d="M230.797 39.344a3.117 3.117 0 00.503-1.672c0-.252-.052-.502-.098-.742a3.01 3.01 0 00-.513 1.662c.001.26.054.51.108.752"/><path fill="#FFF100" d="M227.558 34.607c.033 0 .067 0 .067-.006 0 .006-.034.006-.067.006m-2.879-2.58c0-.582.125-1.129.297-1.634a3.4 3.4 0 00-.944.427c.051.123.081.27.081.401 0 .808-.558 1.474-1.331 1.667v.314a2.884 2.884 0 002.688 2.889c.182-.293.392-.549.659-.781a4.437 4.437 0 01-1.45-3.283m3.153 2.543h.071-.071m-.526.108c.007-.004.007-.01.007-.014 0 .004 0 .01-.007.014m-1.006.476c.02 0 .043-.012.064-.026a.12.12 0 01-.064.026m.231-.152c.004-.004.018-.004.031-.006-.013.002-.027.002-.031.006m.479-.238c.031 0 .062-.007.071-.02-.009.013-.04.02-.071.02m-.229.109"/><path fill="#F9A51A" d="M226.128 35.311a3.309 3.309 0 00-.659.781c.059 0 .125.004.206.004.397 0 .79-.082 1.169-.238a3.784 3.784 0 01-.716-.547"/><path fill="#FFF100" d="M224.031 30.82a1.75 1.75 0 00-.406-.781c-.294.33-.701.547-1.172.547-.517 0-.944-.237-1.234-.615a1.773 1.773 0 00-.544 1.25c0 .326.075.615.231.885.078-.01.114-.015.156-.015a1.46 1.46 0 011.331.839c.148 0 .273-.01.388-.041.11-.86.584-1.603 1.25-2.069m1.407-4.938c0-.173 0-.337.016-.493a2.26 2.26 0 00-.505-.064c-.292 0-.56.063-.82.142 0 .02.003.036.003.041 0 .789-.619 1.443-1.401 1.484-.031.158-.078.346-.093.52.77.105 1.344.744 1.344 1.527 0 .219-.024.422-.109.609.316.178.686.271 1.077.271.102 0 .177 0 .258-.01.313-.561.7-1.043 1.198-1.434a3.972 3.972 0 01-.968-2.593m1.394 2.319c-.022 0-.046.003-.063.018.017-.015.041-.018.063-.018"/><path fill="#FFF100" d="M229.748 21.942a2.962 2.962 0 01-2.875 2.275c-.342 0-.669-.068-.978-.174a3.98 3.98 0 00-.442 1.346 2.294 2.294 0 011.784 2.23c0 .123 0 .24-.02.355a4.57 4.57 0 011.97-.46c.388 0 .729.056 1.093.14a7.038 7.038 0 012.877-3.011 3.95 3.95 0 00-3.409-2.701"/><path fill="#F9A51A" d="M229.188 27.516c-.7 0-1.387.176-1.97.458-.062.347-.19.659-.374.931a3.915 3.915 0 002.738.933 6.345 6.345 0 01.699-2.183 4.722 4.722 0 00-1.093-.139"/><path fill="#FFF100" d="M236.144 41.056a1.628 1.628 0 00-.313-.313 2.978 2.978 0 01-2.112.859c-.25 0-.51-.035-.753-.086-.046.162-.104.32-.104.506.332.049.625.215.856.464v.013c.026.029.055.044.081.078v.037c.022.012.045.041.067.058a.12.12 0 01.008.053c.011.011.029.044.047.054.015.031.029.038.034.069 0 .009 0 .04.005.05.014.033.026.048.038.07l.031.061.001.074c0 .021 0 .036.005.063.008.025.015.05.021.078.003.021.008.037.01.049.008.05.012.102.012.145 0 .063-.009.119-.021.189-.002.008-.005.009-.007.024a.682.682 0 00-.02.177c.189.078.4.119.627.119.787 0 1.478-.502 1.717-1.193a1.608 1.608 0 01-.388-1.033c.002-.239.06-.461.158-.665"/><path fill="#FFF100" d="M232.863 42.137v-.115a1.067 1.067 0 00-.237-.029c-.781 0-1.406.652-1.406 1.443 0 .785.625 1.438 1.406 1.438.678 0 1.233-.449 1.406-1.047a1.801 1.801 0 01-1.169-1.69m7.418-4.092a3.555 3.555 0 01-1.094-.489 7.174 7.174 0 01-2.544.46c.021 0 .041 0 .044-.002.028.188.06.385.06.578 0 .703-.257 1.365-.683 1.875.124.078.235.134.35.197.273-.3.667-.473 1.117-.473.443 0 .857.197 1.123.508a2.711 2.711 0 001.627-2.494v-.16"/><path fill="#F9A51A" d="M236.065 40.467c.426-.51.683-1.172.683-1.875 0-.193-.03-.391-.06-.577l-.044.001a7.737 7.737 0 01-1.75-.205c0 .121-.02.266-.02.396 0 .945.489 1.776 1.191 2.26"/><path fill="#FFF100" d="M244.269 33.75a3.03 3.03 0 01-1.019-.153 7.139 7.139 0 01-3.194 3.552c.143.271.211.58.226.896a3.892 3.892 0 001.316.041c-.021-.041-.04-.078-.058-.119-.002 0-.005-.008-.009-.019v-.097c0-.027 0-.041-.003-.063-.006-.018-.012-.057-.016-.08a.99.99 0 01-.012-.136c0-.856.682-1.55 1.527-1.55.065 0 .111.005.146.012l.075.01c.004.008.054.01.081.01.006 0 .037.004.069.012.006.008.037.02.078.025.009 0 .02.003.054.016.03.012.03.025.063.025.035.004.049.018.059.033.031.004.061.006.065.021.016.018.053.023.081.031 0 .014.008.029.03.029.051.041.126.078.184.119a3.35 3.35 0 00.411-1.6c.002-.351-.079-.689-.154-1.015"/><path fill="#F9A51A" d="M227.238 27.619a2.294 2.294 0 00-1.784-2.23c-.016.156-.016.32-.016.493 0 .991.37 1.896.967 2.595.127-.086.249-.176.364-.258a.097.097 0 01.063-.018c.107-.078.249-.156.386-.227v-.001c.02-.114.02-.231.02-.354"/><path fill="#F26F21" d="M227.218 27.975a4.906 4.906 0 00-.813.502c.127.156.283.308.439.428.185-.272.312-.585.374-.93"/><path fill="#FFF100" d="M221.163 25.508c0-.128.029-.262.056-.387a1.317 1.317 0 00-.644-.161 1.31 1.31 0 00-1.327 1.329c0 .729.576 1.328 1.327 1.328.568 0 1.044-.375 1.245-.888a1.486 1.486 0 01-.657-1.221m8.234-3.594c.104 0 .252.01.352.028a2.53 2.53 0 00.086-.694c0-.311-.028-.597-.12-.879a2.32 2.32 0 01-2.677-2.075 1.518 1.518 0 00-.164-.013c-.253 0-.492.039-.717.095a1.503 1.503 0 01-1.5 1.492c-.137 0-.242-.026-.385-.056-.238.423-.36.923-.36 1.436 0 1.291.826 2.384 1.984 2.794a3.902 3.902 0 013.501-2.128m-6.244-3.557c0-.439.179-.837.491-1.114a1.306 1.306 0 00-1.019-.493c-.678 0-1.243.554-1.243 1.243 0 .679.565 1.242 1.243 1.242.255 0 .482-.069.697-.198a1.351 1.351 0 01-.169-.68m6.191-2.578c.113 0 .237 0 .336.021.007-.059.014-.102.014-.166a2.052 2.052 0 00-2.068-2.056 2.046 2.046 0 00-2.044 2.056 2.05 2.05 0 001.5 1.981 2.307 2.307 0 012.262-1.836m6.258.685c0-.763.314-1.466.841-1.966a4.594 4.594 0 00-1.45-.767 3.875 3.875 0 01-4.093.968 3.65 3.65 0 00-.874 1.175 2.309 2.309 0 011.633 2.211c0 .911-.515 1.699-1.296 2.069a4.2 4.2 0 003.413 1.759h.106a3.91 3.91 0 013.512-2.209l.075.003c.081-.178.156-.372.237-.568-1.191-.298-2.104-1.376-2.104-2.675"/><path fill="#FFF100" d="M236.644 23.721c1.61 0 3.109.538 4.324 1.456.176-.43.304-.899.332-1.389-1.051-.431-1.8-1.447-1.8-2.643 0-.254.053-.515.111-.757a3.914 3.914 0 00-2.143-.682 4.217 4.217 0 01-3.587 2.207 3.99 3.99 0 00-.387 1.681c0 .279.048.547.089.819a7.143 7.143 0 013.061-.692"/><path fill="#FFF100" d="M244.293 21.71a3.163 3.163 0 01-1.451-2.676c0-.232.021-.453.071-.677a2.755 2.755 0 00-.559-.05 2.861 2.861 0 00-2.743 2.081 3.887 3.887 0 011.688 3.206v.194c.313.124.687.197 1.055.197.896 0 1.705-.424 2.227-1.081-.156-.365-.239-.776-.288-1.194m3.321 7.86a3.05 3.05 0 01-2.72-2.619 3.696 3.696 0 00-2.112.275 7.099 7.099 0 011.019 3.642c0 .588-.081 1.161-.223 1.708.298.344.535.744.691 1.175v.001c.521 0 1.013-.119 1.457-.316a1.602 1.602 0 01-.186-.781c0-1.029.835-1.864 1.854-1.864.077 0 .165.011.251.028.035-.16.059-.322.059-.491-.001-.253-.049-.516-.09-.758m1.022 3.737c-.013-.016-.024-.027-.037-.027a1.755 1.755 0 00-.111-.156c0-.027-.009-.037-.028-.064-.044-.051-.053-.092-.081-.137-.019-.033-.038-.051-.047-.07 0-.049-.027-.1-.056-.154-.017-.018-.025-.043-.025-.08-.002-.041-.024-.086-.045-.141a.293.293 0 01-.03-.088c0-.047 0-.102-.003-.162-.006-.02-.014-.041-.019-.076a1.364 1.364 0 01-.003-.46.812.812 0 00.026-.211v-.041c.018-.071.042-.122.071-.19.004 0 .004-.003.004-.014 0-.064.033-.143.076-.196a2.094 2.094 0 00-.682-.22 3.437 3.437 0 01-1.919 2.615c.285.627.934 1.06 1.668 1.06.662 0 1.25-.337 1.563-.855a1.376 1.376 0 01-.322-.333"/><path fill="#FFF100" d="M251.456 31.852a3.577 3.577 0 01-1.563-2.117 2.204 2.204 0 00-1.567 1.303c.549.323.939.914.939 1.617 0 .354-.125.703-.31.982.388.309.856.502 1.406.502.156 0 .313-.02.459-.043a1.778 1.778 0 01-.059-.43 2.78 2.78 0 01.695-1.814"/><path fill="#FFF100" d="M255.836 28.045c0-.096.003-.193.008-.271a4.989 4.989 0 01-4.052-2.397c-.311.155-.58.354-.846.586.041.171.041.364.041.555 0 1.015-.469 1.91-1.25 2.466.021.265.075.51.156.752a2.49 2.49 0 01.469-.049c.938 0 1.767.602 2.085 1.447a2.653 2.653 0 011.082-.234c.814 0 1.521.35 2.023.896.354-.234.666-.518.903-.859a7.182 7.182 0 01-.619-2.892m-4.385-7.167c-.051.001-.076.006-.104.006-.9 0-1.69-.298-2.347-.808a3.178 3.178 0 01-3.007 2.133 3.63 3.63 0 01-.943-.145c-.104.309-.263.59-.469.839a3.716 3.716 0 001.111 1.476 3.109 3.109 0 012.237-.944c.945 0 1.808.431 2.352 1.112.327-.229.625-.514.862-.837a4.962 4.962 0 01.308-2.832"/><path fill="#FFF100" d="M256.128 32.732a3.052 3.052 0 00-.575-.938c-.584.41-1.304.65-2.076.65-.321 0-.627-.045-.927-.118-.156.876-.862 1.577-1.729 1.767.01.176.073.357.127.518.271-.132.563-.213.882-.213 1.011 0 1.813.821 1.813 1.832v.174c.169 0 .351-.031.522-.07-.001-.017-.006-.045-.006-.07.001-1.494.789-2.787 1.969-3.532m-4.373-.707c-.024-.013-.05-.023-.067-.033.017.01.043.021.067.033m.501.215c-.008-.002-.015-.006-.019-.008.004.002.011.006.019.008m-.256-.092c0-.009-.017-.016-.035-.023.019.008.035.015.035.023"/><path fill="#F9A51A" d="M250.822 34.095c.866-.19 1.572-.892 1.729-1.768-.091-.022-.194-.061-.295-.087-.007-.002-.014-.006-.018-.008a2.486 2.486 0 01-.237-.084c0-.009-.018-.016-.035-.023a2.237 2.237 0 01-.21-.099c-.024-.013-.05-.024-.067-.034-.075-.041-.156-.082-.231-.141a2.768 2.768 0 00-.693 1.814c-.002.141.02.28.057.43"/><path fill="#FFF100" d="M255.062 43.398h.063c.121-.197.168-.418.168-.654a1.38 1.38 0 00-1.376-1.377 1.38 1.38 0 00-1.376 1.377c0 .732.553 1.32 1.259 1.391a1.445 1.445 0 011.262-.737m11.691-9.14a7.308 7.308 0 01-3.68 1.003c-.237 0-.47-.019-.697-.032.092.322.123.67.123 1.035 0 .955-.323 1.822-.851 2.525.215.338.508.627.82.872a2.857 2.857 0 012.026-.835c.786 0 1.523.341 2.036.881.872-.625 1.46-1.651 1.46-2.802a3.452 3.452 0 00-1.237-2.647m-2.22 6.094c-.77 0-1.487-.26-2.064-.69-.075.093-.156.181-.231.278.455.424.724 1.037.724 1.699 0 .683-.284 1.291-.749 1.719.501.703 1.351 1.148 2.284 1.148a2.816 2.816 0 002.816-2.836c0-.771-.298-1.45-.781-1.961a3.343 3.343 0 01-1.999.643"/><path fill="#FFF100" d="M261.138 39.361c-.692.6-1.557.99-2.494 1.068-.23.35-.342.765-.342 1.209 0 .197.029.391.076.588.088-.011.178-.023.266-.023.988 0 1.794.779 1.853 1.766.03.004.098.012.136.012.596 0 1.15-.232 1.58-.623a2.712 2.712 0 01-.575-1.688c0-.656.213-1.246.601-1.73a2.433 2.433 0 00-1.101-.579"/><path fill="#FFF100" d="M258.378 42.227a1.848 1.848 0 00-1.609 1.834c0 1.035.843 1.875 1.875 1.875 1.013 0 1.861-.84 1.861-1.875 0-.033-.006-.062-.009-.093a2.342 2.342 0 01-2.118-1.741m10.966-8.075c.237-.598.852-1.008 1.527-1.008.144 0 .277.02.429.057.36-.438.565-1.012.565-1.619 0-.164-.021-.32-.025-.471a2.087 2.087 0 01-.466.059 1.936 1.936 0 01-1.512-.695 7.407 7.407 0 01-2.169 3.117c.428.354.995.563 1.599.563l.052-.003m-2.188-9.461a3.248 3.248 0 012.951-2.518 1.914 1.914 0 01-.058-.558v-.291a3.244 3.244 0 01-3.593-.662c-.237.469-.394.99-.394 1.554.001.979.435 1.847 1.094 2.475m5-5.348v-.004.004"/><path fill="#FFF100" d="M271.96 18.828c.04-.158.04-.314.04-.488a3.261 3.261 0 00-1.263-2.583c-.375.749-1.156 1.268-2.019 1.268a2.295 2.295 0 01-2.025-1.231 3.31 3.31 0 00-1.21 2.547c0 .917.364 1.736.973 2.323a3.526 3.526 0 013.134-1.891c.616 0 1.211.156 1.71.429.209-.142.422-.269.66-.374"/><path fill="#FFF100" d="M268.733 15.076c.768 0 1.453.26 2.005.681a2.251 2.251 0 00-2.019-3.251c-.43 0-.818.114-1.166.313.044.127.068.259.068.383 0 .755-.488 1.406-1.165 1.641 0 .35.095.666.237.952a3.304 3.304 0 012.04-.719m-12.358 11.307c0-.016-.014-.036-.038-.057.025.021.038.041.038.057m.58 1.015zm-.186-.4v-.027.027m-.156-.293"/><path fill="#F9A51A" d="M257.55 23.39a6.941 6.941 0 00-1.422 2.701c.414.433.744.979.931 1.595a5.037 5.037 0 002.795-1.631 4.155 4.155 0 01-2.304-2.665"/><path fill="#FFF100" d="M260.828 21.174a7.137 7.137 0 012.245-.354 7.24 7.24 0 012.494.439 4.177 4.177 0 00-2.803-2.957c-.371.408-.921.68-1.546.68-.503 0-.979-.194-1.325-.51-.25.103-.48.238-.706.391a5.02 5.02 0 011.641 2.311"/><path fill="#FFF100" d="M259.894 18.473a3.857 3.857 0 011.638-.35c.433 0 .852.06 1.233.178a2.04 2.04 0 00.521-1.378 2.04 2.04 0 00-2.067-2.044c-.231 0-.469.041-.696.119a1.726 1.726 0 01-1.335 1.689v.236c0 .616.259 1.162.706 1.55"/><path fill="#FFF100" d="M260.523 14.998a1.758 1.758 0 00-.941-1.584c-.463.609-1.175 1-1.985 1-.166 0-.326-.027-.479-.051a1.862 1.862 0 00-.117.617c0 .975.781 1.771 1.776 1.771.142 0 .275-.031.411-.063a2.05 2.05 0 011.335-1.69"/><path fill="#FFF100" d="M258.777 13.208c.286 0 .567.071.805.206.321-.419.538-.954.538-1.525 0-1.382-1.145-2.516-2.523-2.516-1.38 0-2.525 1.134-2.525 2.516 0 1.234.892 2.25 2.047 2.474.26-.673.9-1.155 1.658-1.155"/><path fill="#F9A51A" d="M253.024 18.275c0 .67.295 1.295.722 1.753a3.809 3.809 0 001.42-2.963c0-.433-.074-.854-.196-1.244-1.104.271-1.946 1.261-1.946 2.454"/><path fill="#FFF100" d="M251.379 19.473c.074.081.1.164.152.252v.001c.081.16.156.35.221.532a4.95 4.95 0 011.342-1.506 1.783 1.783 0 01-.07-.478c0-1.192.843-2.183 1.945-2.454-.532-1.495-1.95-2.579-3.622-2.579-.487 0-.94.083-1.378.248.046.18.078.377.078.571 0 1.226-.703 2.297-1.711 2.853.227.224.383.471.537.751a.222.222 0 00.083.03c.075.016.156.038.231.056.057.022.083.025.156.05.051.009.102.044.156.059.068.029.098.037.156.069.061.018.105.04.156.078.063.019.087.038.155.067.082.049.157.089.238.155.063.029.092.063.156.098.028.031.075.065.103.088.054.041.114.085.146.13.045.018.063.046.091.079.048.045.119.086.152.145.019.019.035.019.052.038.156.196.322.409.469.644.002.001.002.01.006.023"/><path fill="#F9A51A" d="M253.745 20.028a2.331 2.331 0 01-.651-1.275c-.544.41-1.013.92-1.342 1.505.05.184.092.379.124.583a3.77 3.77 0 001.869-.813"/><path fill="#F26F21" d="M255.073 17.863a4.782 4.782 0 00-1.979.89c.081.497.313.933.651 1.275a3.692 3.692 0 001.328-2.165"/><path fill="#FFF100" d="M244.425 16.298a3.115 3.115 0 013.18-.001 3.822 3.822 0 012.363-2.808 3.221 3.221 0 00-3.2-2.688 3.01 3.01 0 00-.678.068c.067.255.128.507.128.775a2.806 2.806 0 01-2.67 2.807c.093.714.408 1.362.877 1.847"/><path fill="#FFF100" d="M243.506 14.061a3.278 3.278 0 012.585-3.193c-.341-1.179-1.427-2.042-2.688-2.042a2.99 2.99 0 00-.622.078c0 .078.008.173.008.273a3.886 3.886 0 01-2.039 3.434c.067.165.153.339.237.498.156-.056.313-.079.49-.079.835 0 1.537.616 1.616 1.421.103.002.205.012.31.012.035 0 .084-.008.146-.012a1.933 1.933 0 01-.043-.39m-3.673.613c0-.182.043-.339.076-.495-.424-.306-.953-.469-1.532-.469a2.74 2.74 0 00-1.935.789 4.193 4.193 0 011.502 3.233c0 .5-.082.974-.238 1.406.23.053.444.078.671.078a2.764 2.764 0 002.767-2.753c0-.06 0-.132-.007-.187a1.642 1.642 0 01-1.304-1.602m20.761-8.286a1.575 1.575 0 00-.781-.192 1.62 1.62 0 000 3.24 1.63 1.63 0 001.644-1.625.966.966 0 00-.017-.206 1.288 1.288 0 01-.846-1.217m-6.406-.099c0-.16.012-.313.066-.469a3.413 3.413 0 00-2.062-.703 3.359 3.359 0 00-3.354 3.359 3.37 3.37 0 003.354 3.357 3.37 3.37 0 003.354-3.357c0-.082-.01-.163-.02-.243a2.075 2.075 0 01-1.338-1.944M235.06 9.842a2.785 2.785 0 01-2.197-2.637 3.254 3.254 0 00-.55-.057c-.316.506-.911.831-1.563.831a1.75 1.75 0 01-.774-.166 3.69 3.69 0 00-.863.856c.081.234.156.49.156.766 0 .712-.394 1.326-.969 1.655a3.89 3.89 0 002.6 3.609c.733-.717 1.745-1.146 2.877-1.146.411 0 .828.057 1.216.177a3.706 3.706 0 001.016-1.954c-.488-.528-.803-1.191-.949-1.934"/><path fill="#F9A51A" d="M235.06 9.842c.146.744.461 1.406.948 1.936a3.35 3.35 0 00.069-.745c0-.405-.052-.788-.171-1.15a2.853 2.853 0 01-.846-.041"/><path fill="#FFF100" d="M238.9 5.273c1.932 0 3.494 1.376 3.83 3.203.364-.166.689-.406.977-.703a3.339 3.339 0 01-1.04-2.422c0-.677.196-1.317.56-1.838a2.82 2.82 0 00-1.65-.531 2.881 2.881 0 00-2.809 2.291h.132"/><path fill="#F9A51A" d="M238.9 5.273h-.133c-.048.194-.048.39-.048.584a2.846 2.846 0 002.856 2.854c.425 0 .818-.079 1.154-.235-.335-1.827-1.898-3.203-3.829-3.203"/><path fill="#FFF100" d="M237.793 5.429a2.7 2.7 0 00-2.163-1.056 2.777 2.777 0 00-2.768 2.769v.063a3.946 3.946 0 012.215 1.231 3.941 3.941 0 012.716-3.007"/><path fill="#F9A51A" d="M235.077 8.436c.366.405.673.9.829 1.447 1.406-.14 2.5-1.318 2.5-2.74 0-.654-.231-1.244-.613-1.713a3.938 3.938 0 00-2.716 3.006"/><path fill="#FFF100" d="M236.219.623c.924 0 1.644.744 1.644 1.662a1.642 1.642 0 11-3.285 0c0-.918.719-1.662 1.641-1.662m4.098-1.131a1.44 1.44 0 011.449 1.436c0 .79-.65 1.427-1.449 1.427a1.432 1.432 0 110-2.863m4.652-.38a1.2 1.2 0 011.175 1.187 1.2 1.2 0 01-1.175 1.183 1.182 1.182 0 01-1.185-1.183c0-.651.519-1.187 1.185-1.187m6.591.014a2.717 2.717 0 012.722 2.722 2.71 2.71 0 01-2.722 2.723 2.714 2.714 0 01-2.722-2.723 2.722 2.722 0 012.722-2.722m5.44 5.21a1.6 1.6 0 01-.944.317c-.306 0-.545-.068-.774-.199a1.996 1.996 0 00-1.027 1.366 3.36 3.36 0 011.273 2.413c.223.087.473.125.74.125a2.072 2.072 0 002.063-2.069c0-.9-.55-1.641-1.331-1.953"/><path fill="#F9A51A" d="M255.528 8.233a3.365 3.365 0 00-1.273-2.413 1.362 1.362 0 00-.066.469 2.07 2.07 0 001.339 1.944"/><path fill="#FFF100" d="M255.281 4.454c.288-.159.625-.244.986-.244.264 0 .501.047.732.126.394-.285.662-.761.662-1.292 0-.897-.737-1.631-1.606-1.631-.916 0-1.631.734-1.631 1.631.001.608.336 1.135.857 1.41"/><path fill="#F9A51A" d="M256.268 4.21c-.361 0-.698.084-.986.243.229.132.469.2.773.2.341 0 .682-.119.945-.317a2.223 2.223 0 00-.732-.126"/><path fill="#FFF100" d="M246.033 1.992c-1.177 0-2.22.6-2.808 1.521a2.849 2.849 0 011.203 2.345 2.84 2.84 0 01-.723 1.916 3.302 3.302 0 002.327.938 3.364 3.364 0 003.365-3.36 3.368 3.368 0 00-3.364-3.36"/><path fill="#F9A51A" d="M243.226 3.512a3.207 3.207 0 00-.56 1.839c0 .953.399 1.808 1.04 2.422a2.843 2.843 0 00.723-1.916c0-.975-.473-1.834-1.203-2.345"/><path fill="#FFF100" d="M261.901 5.081c-.728 0-1.307.583-1.307 1.308.457.247.781.682.846 1.217.138.049.293.09.461.09.725 0 1.286-.587 1.286-1.307 0-.725-.562-1.308-1.286-1.308"/><path fill="#F9A51A" d="M261.44 7.605a1.595 1.595 0 00-.846-1.217c0 .56.345 1.032.846 1.217"/><path fill="#FFF100" d="M262.938 8.703c.712 0 1.315.581 1.315 1.295 0 .718-.604 1.299-1.315 1.299-.7 0-1.301-.581-1.301-1.299a1.31 1.31 0 011.301-1.295m3.34-.852c.804 0 1.429.643 1.429 1.444 0 .79-.625 1.447-1.429 1.447a1.463 1.463 0 01-1.465-1.447c0-.801.657-1.444 1.465-1.444"/><path fill="#F9A51A" d="M240.584 11.645c0 .347.053.66.166.966a3.885 3.885 0 002.039-3.434c0-.1-.008-.195-.008-.273a2.815 2.815 0 00-2.197 2.741m2.922 2.416c0 .132.018.275.043.391a2.806 2.806 0 002.67-2.807c0-.269-.061-.521-.128-.777a3.278 3.278 0 00-2.585 3.193m17.322 7.113c.159.505.234 1.047.234 1.599a5.07 5.07 0 01-1.209 3.282c.509.232 1.08.35 1.678.35a4.136 4.136 0 004.144-4.141c0-.35-.028-.678-.107-1.004a7.24 7.24 0 00-2.494-.439 7.082 7.082 0 00-2.246.353"/><path fill="#FFF100" d="M229.976 7.813a3.907 3.907 0 012.211-.672c.051 0 .093.006.126.006.221-.312.316-.666.316-1.056a1.878 1.878 0 10-3.754 0c0 .779.462 1.439 1.101 1.722"/><path fill="#F9A51A" d="M232.187 7.142c-.812 0-1.583.24-2.211.671.233.116.506.166.774.166.651 0 1.246-.325 1.563-.831-.032 0-.075-.006-.126-.006"/><path fill="#FFF100" d="M228.296 11.033c0-.889.294-1.711.816-2.363-.313-.663-.96-1.131-1.723-1.131-1.06 0-1.898.859-1.898 1.897a1.892 1.892 0 002.808 1.657c.001-.03-.003-.039-.003-.06"/><path fill="#F9A51A" d="M228.3 11.092c.575-.33.969-.943.969-1.656 0-.276-.075-.531-.156-.766a3.762 3.762 0 00-.816 2.363c-.001.021.003.03.003.059"/><path fill="#FFF100" d="M224.581 11.446c.796 0 1.463.662 1.463 1.46 0 .804-.667 1.461-1.463 1.461a1.47 1.47 0 01-1.459-1.461c0-.799.667-1.46 1.459-1.46"/><path fill="#F9A51A" d="M222.781 32.889c.772-.193 1.331-.859 1.331-1.667 0-.132-.03-.278-.081-.401a2.986 2.986 0 00-1.25 2.068"/><path fill="#FFF100" d="M229.714 20.369c.23-.037.443-.101.648-.214a4.24 4.24 0 01-.781-2.422c0-.663.156-1.291.444-1.858-.125-.029-.213-.055-.346-.073a2.049 2.049 0 01-2.599 1.816 2.218 2.218 0 00-.061.469c0 .078.007.145.017.208a2.977 2.977 0 012.678 2.074"/><path fill="#F9A51A" d="M227.037 18.293a2.319 2.319 0 002.677 2.075 2.982 2.982 0 00-2.677-2.075m.044-.676a2.049 2.049 0 002.599-1.816c-.099-.021-.223-.021-.336-.021a2.307 2.307 0 00-2.263 1.837m4.577.468a2.307 2.307 0 00-1.633-2.21 4.077 4.077 0 00-.444 1.857c0 .9.307 1.747.781 2.422a2.268 2.268 0 001.296-2.069m3.334-4.354a4.146 4.146 0 00-1.216-.177c-1.132 0-2.144.428-2.877 1.146.4.142.837.225 1.287.225a3.879 3.879 0 002.806-1.194m2.477 5.976l-.075-.003c-1.545 0-2.88.908-3.512 2.209a4.214 4.214 0 003.587-2.206m2.143.682a3.311 3.311 0 00-.111.757c0 1.196.749 2.211 1.8 2.643v-.194a3.893 3.893 0 00-1.689-3.206m1.219 9.938c0 .376.075.751.173 1.087.022 0 .045-.003.059-.003 1.019 0 1.906.462 2.516 1.165.141-.547.222-1.12.222-1.708 0-1.33-.382-2.57-1.019-3.642a3.429 3.429 0 00-1.951 3.101"/><path fill="#F26F21" d="M241.063 31.412l-.059.002c.371 1.047 1.195 1.865 2.246 2.184.149-.318.237-.668.328-1.021a3.306 3.306 0 00-2.515-1.165"/><path fill="#F9A51A" d="M243.578 32.576c-.091.354-.178.7-.328 1.018.313.109.647.154 1.019.154a3.767 3.767 0 00-.691-1.172"/><path fill="#FFF100" d="M250.947 25.963a3.232 3.232 0 00-.665-1.416 3.756 3.756 0 01-2.188.685 3.8 3.8 0 01-2.4-.854 3.132 3.132 0 00-.856 2.139c0 .149.023.291.057.434a3.478 3.478 0 012.72 2.619 2.962 2.962 0 002.124-.587v-.271a3.702 3.702 0 011.208-2.749"/><path fill="#F9A51A" d="M244.894 26.951a3.047 3.047 0 002.72 2.619 3.478 3.478 0 00-2.72-2.619m6.053-.988a3.71 3.71 0 00-1.209 2.748v.271a2.988 2.988 0 001.25-2.465c0-.191 0-.384-.041-.554m-.666-1.415a3.011 3.011 0 00-2.351-1.112c-.88 0-1.67.361-2.238.944a3.806 3.806 0 002.401.853 3.78 3.78 0 002.188-.685m11.368 14.241a4.186 4.186 0 00.851-2.525c0-.365-.034-.712-.124-1.035a14.805 14.805 0 01-.771-.115 3.369 3.369 0 00-.53 1.793c-.001.693.225 1.335.574 1.882m-.511.572a2.565 2.565 0 00-.506-.063c-.834 0-1.591.459-1.988 1.131a4.359 4.359 0 002.494-1.068m-20.857-1.316a2.147 2.147 0 00-.226-.896 5.767 5.767 0 01-.868.407 3.59 3.59 0 001.094.489m-5.623 2.268c-.783 0-1.427.508-1.692 1.203.243.051.503.086.753.086.825 0 1.563-.318 2.112-.859a1.762 1.762 0 00-1.173-.43m-1.795 1.708v.115a1.8 1.8 0 001.169 1.689c.015-.121.048-.26.048-.391a1.421 1.421 0 00-1.217-1.413"/><path fill="#FFF100" d="M240.563 40.586c.504 0 .942.428.942.938a.95.95 0 01-.942.938.943.943 0 01-.941-.938.948.948 0 01.941-.938m.945 2.344c.336 0 .598.271.598.609 0 .328-.262.6-.598.6a.59.59 0 01-.602-.6c0-.338.251-.609.602-.609m-1.383 1.109c.394 0 .706.303.706.688a.693.693 0 01-.706.688.682.682 0 01-.687-.688.681.681 0 01.687-.688"/><path fill="#F9A51A" d="M235.602 16.464c0 1.298.913 2.376 2.104 2.674.156-.432.237-.906.237-1.406a4.196 4.196 0 00-1.501-3.234c-.526.5-.84 1.203-.84 1.966m10.391-.602c-.558 0-1.1.162-1.568.437a3.158 3.158 0 002.344 1.02c.262 0 .524-.031.771-.092-.004-.052-.014-.117-.014-.162 0-.27.023-.515.079-.768a3.155 3.155 0 00-1.612-.435"/><path fill="#F26F21" d="M249.138 18.611a1.226 1.226 0 01-.025-.254c-.008-.029-.019-.048-.028-.078-.035-.083-.053-.176-.076-.265-.01-.007-.019-.032-.028-.048-.023-.103-.078-.194-.106-.302a4.133 4.133 0 00-.779-.074c-.157 0-.349.026-.535.044a3.814 3.814 0 001.441 2.441c.112-.325.188-.671.188-1.041 0-.114-.011-.225-.03-.333a2.442 2.442 0 00-.022-.09"/><path fill="#F9A51A" d="M251.347 20.884c.185 0 .341-.027.529-.044-.243-1.583-1.438-2.862-3.003-3.176.181.421.314.89.314 1.37 0 .371-.075.716-.188 1.042a3.772 3.772 0 002.348.808"/><path fill="#FFF100" d="M240.988 13.109a1.668 1.668 0 00-1.078 1.07 2.812 2.812 0 011.228 2.098c.093.018.236.042.341.042.916 0 1.644-.733 1.644-1.645a1.18 1.18 0 00-.027-.223c-.882-.086-1.651-.606-2.108-1.342"/><path fill="#F9A51A" d="M240.988 13.109c.457.735 1.227 1.255 2.106 1.342-.079-.805-.781-1.42-1.616-1.42-.178 0-.334.022-.49.078m-1.079 1.07c-.033.156-.076.313-.076.496 0 .785.551 1.435 1.304 1.602a2.809 2.809 0 00-1.228-2.098"/><path fill="#FFF100" d="M261.906 11.593c.837 0 1.511.673 1.511 1.53a1.52 1.52 0 01-1.511 1.525c-.843 0-1.543-.687-1.543-1.525 0-.856.7-1.53 1.543-1.53"/><path fill="#F9A51A" d="M257.117 14.363c.152.024.313.051.479.051.811 0 1.522-.391 1.985-.999a1.638 1.638 0 00-.805-.207c-.757 0-1.397.482-1.659 1.155m2.071 2.325a1.728 1.728 0 001.335-1.689c-.71.263-1.25.902-1.335 1.689m.706 1.785c.346.316.822.51 1.325.51.625 0 1.175-.272 1.546-.681a4.163 4.163 0 00-1.233-.178 3.838 3.838 0 00-1.638.349"/><path fill="#FFF100" d="M255.073 17.863c.326-.057.668-.09.989-.09.706 0 1.399.145 2.001.405a2.51 2.51 0 00-3.095-2.358c.123.39.196.811.196 1.244.001.278-.039.547-.091.799"/><path fill="#F9A51A" d="M255.073 17.863a3.7 3.7 0 01-1.328 2.165 2.49 2.49 0 001.802.751c1.378 0 2.524-1.125 2.524-2.504 0-.033-.006-.072-.008-.097a5.094 5.094 0 00-2.001-.405c-.321 0-.662.034-.989.09m-25.676 4.051a3.904 3.904 0 00-3.501 2.129c.309.106.636.174.978.174a2.962 2.962 0 002.875-2.275 2.29 2.29 0 00-.352-.028"/><path fill="#FFF100" d="M221.646 21.007c.748 0 1.327.594 1.327 1.327a1.327 1.327 0 11-2.654 0c0-.733.587-1.327 1.327-1.327m.748 8.509c.469 0 .922.205 1.231.523.094-.119.175-.24.246-.391-.734-.39-1.241-1.141-1.241-2.029 0-.035.004-.071.007-.107-.06-.014-.12-.014-.184-.014-.846 0-1.547.695-1.547 1.541 0 .353.116.681.313.932a1.7 1.7 0 011.175-.455"/><path fill="#F9A51A" d="M222.394 29.516c-.469 0-.862.17-1.175.455.29.378.718.615 1.234.615.471 0 .878-.217 1.172-.547a1.745 1.745 0 00-1.231-.523m1.587-.477c0-.783-.574-1.422-1.344-1.527-.003.035-.007.072-.007.108 0 .888.506 1.64 1.241 2.028.085-.187.11-.39.11-.609"/><path fill="#FFF100" d="M244.014 36.367a3.42 3.42 0 01-2.416 1.719c.199.588.78 1.016 1.431 1.016.847 0 1.553-.682 1.553-1.527a1.6 1.6 0 00-.568-1.208"/><path fill="#F9A51A" d="M244.014 36.367a1.628 1.628 0 00-.985-.345c-.847 0-1.527.694-1.527 1.552 0 .172.03.355.097.512a3.418 3.418 0 002.415-1.719m3.631-5.547a1.274 1.274 0 00-.251-.031 1.864 1.864 0 00-1.854 1.864c0 .276.054.542.186.781a3.436 3.436 0 001.919-2.614m.681.217a1.896 1.896 0 00-.195.877c0 .703.33 1.328.825 1.723.185-.279.31-.629.31-.984 0-.702-.391-1.293-.94-1.616m5.204-.138c-.385 0-.748.086-1.082.233.098.237.135.506.135.781 0 .142-.023.271-.032.413.3.073.605.118.927.118.772 0 1.492-.24 2.076-.65a2.73 2.73 0 00-2.024-.895"/><path fill="#F26F21" d="M252.582 31.914c0-.275-.037-.545-.135-.781a2.066 2.066 0 00-.533.313c-.07.043-.146.112-.227.161 0 .015-.001.026-.015.032-.072.069-.142.139-.217.213.315.219.7.375 1.094.476.01-.142.033-.271.033-.414"/><path fill="#F9A51A" d="M250.363 29.686a2.41 2.41 0 00-.469.049 3.57 3.57 0 001.563 2.117c.263-.307.616-.56.991-.719a2.246 2.246 0 00-2.085-1.447"/><path fill="#FFF100" d="M253.53 36.408a2.74 2.74 0 01-2.581-1.797 1.832 1.832 0 00-.974 1.619c0 1.011.844 1.832 1.855 1.832.951 0 1.732-.721 1.813-1.658-.034 0-.08.004-.113.004"/><path fill="#F9A51A" d="M251.83 34.398a2 2 0 00-.883.213 2.742 2.742 0 002.582 1.797c.033 0 .079-.004.114-.004v-.174a1.816 1.816 0 00-1.813-1.832"/><path fill="#FFF100" d="M238.655 40.699a2.74 2.74 0 01-1.085.225 2.86 2.86 0 01-1.155-.26 1.558 1.558 0 00-.271.392c.222.312.34.673.34 1.081 0 .207-.027.422-.108.615.288.315.706.518 1.156.518a1.536 1.536 0 001.123-2.571"/><path fill="#F9A51A" d="M236.144 41.056a1.524 1.524 0 00-.156.663c0 .397.156.761.388 1.033.081-.193.108-.408.108-.615 0-.408-.119-.77-.34-1.081m.27-.392c.354.156.742.26 1.155.26a2.74 2.74 0 001.085-.225 1.486 1.486 0 00-1.123-.508c-.45 0-.843.173-1.117.473"/><path fill="#FFF100" d="M222.394 32.93a1.76 1.76 0 01-1.487-.824c-.7.078-1.266.684-1.266 1.428a1.43 1.43 0 001.422 1.441 1.45 1.45 0 001.463-1.441c0-.214-.057-.411-.132-.604"/><path fill="#F9A51A" d="M220.906 32.105a1.76 1.76 0 001.487.824 1.461 1.461 0 00-1.331-.839c-.041.001-.077.006-.156.015"/><path fill="#FFF100" d="M222.647 26.992h.083a2.387 2.387 0 011.399-1.525 1.472 1.472 0 00-1.482-1.444c-.678 0-1.271.469-1.428 1.098.394.23.684.658.684 1.168 0 .156-.047.309-.082.44.241.169.516.263.826.263"/><path fill="#F9A51A" d="M222.73 26.992a1.486 1.486 0 001.401-1.484l-.002-.041a2.387 2.387 0 00-1.399 1.525m-1.511-1.87c-.026.125-.056.258-.056.386 0 .506.268.958.657 1.223.035-.132.082-.285.082-.441a1.353 1.353 0 00-.683-1.168"/><path fill="#FFF100" d="M225.05 37.672c0-.211 0-.438.068-.643h-.028c-1.134 0-2.051.914-2.051 2.04s.917 2.051 2.051 2.051a2 2 0 001.548-.727c-.963-.526-1.588-1.547-1.588-2.721"/><path fill="#F9A51A" d="M225.118 37.029c-.068.205-.068.432-.068.643 0 1.174.625 2.195 1.588 2.722.301-.354.503-.817.503-1.324a2.053 2.053 0 00-2.023-2.041"/><path fill="#FFF100" d="M230.037 40.176a3.128 3.128 0 01-1.862.617c-.462 0-.862-.092-1.25-.248-.313.379-.475.859-.475 1.389 0 1.23.986 2.227 2.204 2.227 1.239 0 2.25-.996 2.25-2.227.001-.723-.354-1.348-.867-1.758"/><path fill="#F9A51A" d="M230.037 40.176a2.238 2.238 0 00-1.383-.469c-.701 0-1.325.332-1.729.838.388.156.788.248 1.25.248.7 0 1.325-.229 1.862-.617"/><path fill="#FFF100" d="M226.156 18.376a1.506 1.506 0 00-1.5-1.538c-.388 0-.76.153-1.013.404.156.215.231.465.231.75 0 .443-.231.832-.553 1.044.172.379.55.673.949.776a3.031 3.031 0 011.886-1.436"/><path fill="#F9A51A" d="M224.272 19.813c.142.029.248.055.385.055.829 0 1.487-.665 1.5-1.491a3.015 3.015 0 00-1.885 1.436m-1.119-1.456c0 .238.05.469.17.679.321-.213.553-.601.553-1.044 0-.285-.075-.532-.231-.75a1.473 1.473 0 00-.492 1.115"/><path fill="#FFF100" d="M245.762 38.164c.482 0 .866.387.866.859a.866.866 0 01-1.732 0c0-.472.385-.859.866-.859m2.716 1.449c.438 0 .791.373.791.816a.8.8 0 01-.791.818.824.824 0 01-.836-.818c0-.443.377-.816.836-.816m3.853 4.538c.45 0 .835.374.835.812a.824.824 0 01-.835.816c-.44 0-.8-.353-.8-.816 0-.438.36-.812.8-.812m2.794-.753a1.38 1.38 0 01-1.208.74c-.042 0-.073 0-.117-.004a1.468 1.468 0 001.262 2.192c.826 0 1.47-.66 1.47-1.463a1.473 1.473 0 00-1.407-1.465"/><path fill="#F9A51A" d="M253.8 44.135a1.382 1.382 0 001.325-.736h-.063a1.44 1.44 0 00-1.262.736"/><path fill="#FFF100" d="M245.906 40.43c.354 0 .625.287.625.633a.626.626 0 01-.625.635.636.636 0 01-.625-.635c0-.346.287-.633.625-.633"/><path fill="#F9A51A" d="M258.378 42.227a2.34 2.34 0 002.118 1.741 1.867 1.867 0 00-1.853-1.766c-.087 0-.177.013-.265.025m3.86-2.288a2.723 2.723 0 00-.602 1.73c0 .635.208 1.219.576 1.688a2.319 2.319 0 00.749-1.719c0-.661-.268-1.275-.723-1.699m7.968-10.759c-.081.44-.196.883-.344 1.296.348.423.888.694 1.512.694.157 0 .313-.023.466-.059a2.587 2.587 0 00-1.634-1.931"/><path fill="#F26F21" d="M269.387 29.016a1.088 1.088 0 00-.014.164c0 .506.197.95.489 1.295.147-.413.263-.854.344-1.295a2.39 2.39 0 00-.819-.164"/><path fill="#F9A51A" d="M270.206 29.178c0-.168.034-.338.058-.508h-.001c-.108 0-.213 0-.294-.016-.014-.004-.047-.008-.075-.012a1.063 1.063 0 01-.24-.051c-.038 0-.072 0-.072-.004-.041-.013-.081-.021-.088-.033-.068.156-.082.306-.106.461.268.008.56.059.818.163"/><path fill="#FFF100" d="M271.3 33.201a2.58 2.58 0 01-1.956.951c-.075.201-.145.418-.145.652 0 .916.768 1.659 1.672 1.659.905 0 1.672-.743 1.672-1.659 0-.773-.543-1.406-1.243-1.603"/><path fill="#F9A51A" d="M271.3 33.201a1.748 1.748 0 00-.429-.058c-.676 0-1.29.411-1.527 1.009a2.58 2.58 0 001.956-.951"/><path fill="#FFF100" d="M273.117 18.611c-.411 0-.805.082-1.158.217a3.22 3.22 0 01-.19.688 3.362 3.362 0 011.349 2.701c0 .413-.081.82-.214 1.181.063.089.117.185.19.272v.009c.076.097.113.188.156.285v.012c.071.087.096.203.156.299.018.1.072.217.081.331 1.537-.192 2.724-1.445 2.724-2.989 0-1.657-1.398-3.006-3.094-3.006"/><path fill="#F9A51A" d="M273.488 24.605a3.08 3.08 0 00-.583-1.208c-.152.41-.376.781-.667 1.094.28.079.571.129.88.129.132.001.258-.013.37-.015m-2.75-8.849a3.284 3.284 0 00-2.005-.68 3.31 3.31 0 00-2.039.717 2.297 2.297 0 002.025 1.23c.862.001 1.644-.518 2.019-1.267"/><path fill="#FFF100" d="M266.456 14.764a2.3 2.3 0 011.097-1.945 1.723 1.723 0 00-1.689-1.359 1.747 1.747 0 100 3.493c.199 0 .415-.039.593-.11l-.001-.079"/><path fill="#F9A51A" d="M266.456 14.764v.078a1.742 1.742 0 001.165-1.641c0-.124-.024-.256-.068-.383a2.304 2.304 0 00-1.097 1.946m4.844 4.437c.156.094.318.197.469.315.085-.221.156-.453.191-.688a4.164 4.164 0 00-.66.373m.313.647c-.011.072-.068.138-.084.191-.021.034-.042.045-.063.078-.09.156-.23.313-.354.469-.012 0-.023 0-.035.013-.058.065-.119.141-.187.194l-.03.027a3.554 3.554 0 01-.809.505v.291c0 1.351.931 2.505 2.188 2.876.544-.604.88-1.406.88-2.274a3.366 3.366 0 00-1.349-2.702c-.012.092-.076.172-.099.263-.02.025-.041.053-.058.069"/><path fill="#F26F21" d="M270.357 22.153c-.085 0-.166.01-.249.02.036.265.129.521.255.756v.038c.039.042.075.094.077.146.017.01.032.028.048.05.031.038.041.078.088.118.019.029.019.039.019.062a.352.352 0 01.092.122.279.279 0 01.064.049c.011.041.061.078.081.119 0 0 .018.011.033.026.055.06.123.13.198.188.022.02.064.054.081.066.025.031.07.047.075.069.045.028.081.043.102.078.044.011.055.041.089.047.047.031.066.05.122.072 0 .016.046.038.081.044.025.034.075.044.107.071.043.004.049.025.084.041.04.017.102.038.13.055a.793.793 0 00.066.023c.081.038.156.06.237.078.291-.313.515-.683.667-1.094a3.286 3.286 0 00-2.547-1.244"/><path fill="#F9A51A" d="M271.3 19.201a3.6 3.6 0 00-1.71-.429 3.526 3.526 0 00-3.134 1.891 3.25 3.25 0 003.593.662 2.992 2.992 0 011.251-2.124"/><path fill="#F26F21" d="M271.531 19.339c-.075-.044-.156-.09-.231-.138a2.977 2.977 0 00-1.248 2.124 3.318 3.318 0 001.717-1.809c-.075-.065-.154-.113-.237-.173l-.001-.004"/><path fill="#F9A51A" d="M266.531 39.708a2.829 2.829 0 00-4.062-.046c.577.43 1.295.689 2.064.689a3.324 3.324 0 001.998-.643"/><path fill="#F26F21" d="M248.336 16.914a3.525 3.525 0 00-.73-.617 3.47 3.47 0 00-.079.768c0 .045.01.11.014.162.278-.073.553-.177.795-.313"/><path fill="#F9A51A" d="M248.336 16.914c1.008-.556 1.711-1.628 1.711-2.853 0-.194-.032-.391-.078-.57a3.82 3.82 0 00-2.363 2.807c.261.166.523.379.73.616m-3.755 5.99c.206-.25.365-.53.469-.839a3.477 3.477 0 01-.757-.354c.049.417.132.828.288 1.193m2.978-5.269a3.808 3.808 0 00-2.821 1.972c.302.437.469.978.469 1.539 0 .323-.077.625-.156.919.313.083.625.144.943.144 1.4 0 2.569-.889 3.006-2.132a3.821 3.821 0 01-1.441-2.442"/><path fill="#FFF100" d="M247.877 18.672l.017.035-.017-.035zm.594.898c.017 0 .017.021.017.038 0-.017 0-.038-.017-.038m-3.733.037a3.814 3.814 0 012.821-1.973c-.009-.137-.009-.267-.019-.409-.247.061-.51.092-.771.092-.938 0-1.77-.393-2.344-1.02a3.092 3.092 0 00-1.512 2.059c.758.158 1.428.62 1.825 1.251m3.981.227c0 .008.006.009.023.024-.017-.015-.023-.016-.023-.024m-3.564.856l.03.132-.03-.132m2.589-2.36c.007.02.015.028.022.037-.007-.01-.015-.018-.022-.037m-2.694 1.943c.006.037.019.051.029.078-.01-.027-.023-.041-.029-.078m.149.639c.007.078.007.155.007.235 0-.08 0-.158-.007-.235m2.426-2.936c0 .017.006.032.011.032-.005-.001-.011-.015-.011-.032"/><path fill="#F26F21" d="M245.185 20.822c-.009-.042-.02-.08-.03-.132-.01-.034-.021-.067-.029-.104v-.119a.799.799 0 00-.046-.116c-.011-.028-.023-.042-.029-.078-.081-.234-.163-.467-.313-.666a3.727 3.727 0 00-.469 1.803c0 .109.013.193.024.3.228.143.488.266.757.354.079-.294.156-.596.156-.919 0-.08 0-.157-.007-.235l-.014-.088"/><path fill="#F9A51A" d="M245.199 20.912c.007.078.007.155.007.235 0-.104-.003-.211-.021-.325l.014.09m-.461-1.305c.149.199.231.431.313.666.006.036.019.05.029.078a.932.932 0 01.046.116c-.076-.313-.23-.597-.388-.86m.387.978c.009.038.019.07.029.104.004.011.007.029.011.052a1.456 1.456 0 00-.04-.156m-.303 1.404c-.015-.024-.072-.038-.084-.054.011.016.069.03.084.054m-.173-.092c-.067-.024-.107-.054-.148-.072.04.018.08.048.148.072"/><path fill="#FFF100" d="M242.781 8.904c0-.156-.011-.294-.052-.428a2.738 2.738 0 01-1.154.235 2.845 2.845 0 01-2.856-2.854c0-.195 0-.391.048-.584a4.92 4.92 0 00-.974.156c.382.469.613 1.059.613 1.712 0 1.422-1.094 2.601-2.5 2.741.12.362.171.745.171 1.15 0 .256-.015.501-.069.745a3.898 3.898 0 002.892 1.29c.682 0 1.307-.174 1.851-.457a2.732 2.732 0 01-.166-.966 2.813 2.813 0 012.196-2.74"/><path fill="#F26F21" d="M235.066 9.842a2.645 2.645 0 00.84.041c-.156-.547-.46-1.037-.823-1.447-.033.234-.069.48-.069.744 0 .225.036.442.052.662"/><path fill="#F9A51A" d="M235.008 9.179c0-.263.042-.509.07-.744a3.94 3.94 0 00-2.216-1.23 2.785 2.785 0 002.197 2.637c-.013-.22-.051-.435-.051-.663m9.284 12.521c-.011-.099-.023-.183-.023-.289 0-.651.172-1.263.469-1.803a2.844 2.844 0 00-1.824-1.25 3.006 3.006 0 00-.071.677c0 1.12.564 2.101 1.45 2.674V21.7zm6.771 1.073c0 .317.028.633.081.938a3.76 3.76 0 00.781-2.3c0-.196-.003-.385-.048-.57-.139.018-.28.03-.426.038a4.938 4.938 0 00-.388 1.894"/><path fill="#F26F21" d="M251.752 20.258c-.14.2-.221.406-.301.62.146-.008.287-.021.426-.037a5.695 5.695 0 00-.125-.583"/><path fill="#FFF100" d="M259.188 18.864a5.066 5.066 0 00-1.124-.687c.002.026.008.064.008.098 0 1.379-1.146 2.504-2.524 2.504a2.49 2.49 0 01-1.802-.751 3.774 3.774 0 01-1.868.813c.045.185.048.373.048.57 0 .867-.294 1.669-.781 2.3a5.41 5.41 0 00.648 1.665 3.722 3.722 0 014.334.714 6.937 6.937 0 011.424-2.699v-.001a4.678 4.678 0 01-.156-1.126 4.092 4.092 0 011.793-3.4"/><path fill="#F9A51A" d="M255.844 27.773a7.975 7.975 0 01.282-1.684 3.722 3.722 0 00-4.334-.714 4.985 4.985 0 004.052 2.398"/><path fill="#F26F21" d="M257.55 23.39a4.153 4.153 0 002.304 2.665 5.07 5.07 0 001.209-3.282 5.35 5.35 0 00-.234-1.6 7.266 7.266 0 00-3.279 2.217"/><path fill="#F9A51A" d="M268.191 22.967a6.626 6.626 0 00-2.047-1.445c-.039.219-.081.453-.081.695 0 .978.435 1.847 1.094 2.474.156-.67.545-1.28 1.034-1.724"/><path fill="#F26F21" d="M256.126 26.09a7.954 7.954 0 00-.282 1.684h.219c.339 0 .675-.033.996-.088a4.003 4.003 0 00-.931-1.595"/><path fill="#FFF100" d="M271.374 27.201c.477 0 .938.185 1.3.494.576-.588.93-1.387.93-2.271 0-.29-.041-.564-.116-.819-.111.001-.237.015-.37.015-.309 0-.599-.05-.88-.129a3.497 3.497 0 01-2.353 1.146c.197.606.321 1.235.395 1.901a1.927 1.927 0 011.094-.337"/><path fill="#F9A51A" d="M272.674 27.695a2.01 2.01 0 00-1.3-.494c-.412 0-.78.125-1.095.338.002.156.002.329.002.506 0 .203 0 .426-.018.625.018 0 .046.004.093.004.897 0 1.725-.367 2.318-.979"/><path fill="#F9A51A" d="M270.28 27.539c.002.156.002.328.002.506l-.002-.506m0 0a9.36 9.36 0 00-.395-1.901c-.099.011-.194.022-.295.022a3.534 3.534 0 01-2.434-.969 3.67 3.67 0 00-.075.733 3.246 3.246 0 002.414 3.13c.133-.424.399-.781.785-1.015"/><path fill="#F26F21" d="M268.191 22.967a3.435 3.435 0 00-1.034 1.724 3.5 3.5 0 00.798.572 3.133 3.133 0 01.296.126c.021.01.047.018.073.027.083.03.164.058.239.092a.22.22 0 01.108.025c.075.012.148.041.227.053.059.008.132.018.175.03.047.007.115.009.185.017.093.019.235.028.333.028.101 0 .196-.012.295-.022-.386-1.014-.935-1.929-1.695-2.672"/><path fill="#F9A51A" d="M269.89 25.638a3.48 3.48 0 002.348-1.146c-1.094-.313-1.932-1.212-2.129-2.322a3.263 3.263 0 00-1.915.797c.762.743 1.312 1.656 1.696 2.671"/><path fill="#F26F21" d="M270.28 27.539a1.791 1.791 0 00-.784 1.016c.242.078.482.115.769.115.018-.199.018-.422.018-.625l-.003-.506"/><path fill="#FFF100" d="M267.081 25.425c0-.257.028-.502.075-.733-.659-.627-1.094-1.497-1.094-2.474 0-.243.042-.474.081-.695a4.945 4.945 0 00-.576-.263c.08.326.107.654.107 1.004a4.137 4.137 0 01-4.144 4.141 4.038 4.038 0 01-1.678-.35 5.037 5.037 0 01-2.795 1.631c.098.322.142.672.142 1.025 0 .834-.275 1.6-.744 2.225.938 2.109 2.815 3.692 5.148 4.178a3.395 3.395 0 012.929-1.665c.829 0 1.61.3 2.22.81a9.43 9.43 0 00.94-.666 2.53 2.53 0 01-.975-2.01 2.564 2.564 0 012.573-2.574c.048 0 .052.006.095.007.021-.157.038-.307.105-.46a3.25 3.25 0 01-2.409-3.131"/><path fill="#F9A51A" d="M256.456 30.936a3.685 3.685 0 00.744-2.225c0-.354-.044-.703-.142-1.025a2.2 2.2 0 00-.236.041l-.023.004a2.015 2.015 0 00-.217.021l-.07.01a1.534 1.534 0 01-.185.012h-.484a4.447 4.447 0 00-.008.271 7.175 7.175 0 00.621 2.891m1.875 1.158c-.394 0-.781.055-1.122.159a7.317 7.317 0 004.396 2.859c.133-.229.309-.453.477-.642a4.143 4.143 0 00-3.751-2.376"/><path fill="#F9A51A" d="M261.605 35.113c.477.087.945.148 1.469.148a7.308 7.308 0 003.68-1.004 3.462 3.462 0 00-2.221-.811 3.396 3.396 0 00-2.928 1.667"/><path fill="#F26F21" d="M262.081 34.471c-.081.1-.159.195-.244.295l-.005.006a3.069 3.069 0 00-.228.341c.239.042.492.083.771.116a2.915 2.915 0 00-.294-.758"/><path fill="#F9A51A" d="M269.749 30.352c-.005 0-.009 0-.012-.005-.003-.041-.046-.083-.081-.128v-.023c-.023-.041-.058-.078-.075-.121 0-.023 0-.035-.003-.047a1.765 1.765 0 01-.078-.114v-.069c-.009-.035-.029-.07-.047-.107-.011-.016-.021-.051-.028-.072v-.094a.59.59 0 00-.016-.103.507.507 0 01-.021-.095c-.007-.037-.009-.08-.012-.131 0-.025-.004-.033-.004-.063l.004-.025c0-.053.003-.094.01-.139-.043-.002-.048-.008-.095-.008a2.564 2.564 0 00-2.573 2.574c0 .805.366 1.539.975 2.01a7.416 7.416 0 002.169-3.116c-.049-.042-.062-.087-.113-.124"/><path fill="#FFF100" d="M270.263 28.67zm2.411-.975c-.361.385-.83.662-1.336.822l-.023.008c-.096.029-.171.061-.263.072-.019.002-.036.01-.056.014-.09.021-.165.027-.26.046-.025.003-.051.009-.062.011-.098.002-.23.006-.318.006-.047 0-.075-.004-.093-.004-.023.17-.058.34-.058.508v.002a2.59 2.59 0 011.634 1.933 1.972 1.972 0 001.491-1.933 1.942 1.942 0 00-.656-1.485m-11.6 9.211c0-.658.206-1.283.53-1.793a7.337 7.337 0 01-4.396-2.859 4.03 4.03 0 00-1.081.479c.091.289.167.6.167.934 0 1.295-.933 2.389-2.129 2.668.021 2.274 1.896 4.1 4.165 4.1.099 0 .216-.004.313-.004a2.331 2.331 0 011.988-1.131c.177 0 .346.03.506.063.167-.182.353-.374.51-.572-.347-.549-.573-1.191-.573-1.885"/><path fill="#F9A51A" d="M256.295 33.666c0-.334-.076-.645-.167-.934-1.181.744-1.968 2.037-1.968 3.531 0 .025.005.055.006.07 1.197-.278 2.129-1.372 2.129-2.667"/><path fill="#FFF100" d="M242.781 27.227a7.515 7.515 0 00-1.813-2.05 3.904 3.904 0 01-7.384-.763 6.47 6.47 0 00-.427.23c.114.392.185.801.185 1.239a3.904 3.904 0 01-1.144 2.787 4.537 4.537 0 011.506 3.357 4.476 4.476 0 01-2.173 3.835c.113.114.237.229.344.335a3.009 3.009 0 013.8.092 2.674 2.674 0 011.894-.781h.213c-.065-.234-.075-.478-.075-.742a3.357 3.357 0 013.298-3.351 3.95 3.95 0 01-.173-1.088 3.424 3.424 0 011.949-3.1"/><path fill="#F9A51A" d="M231.875 36.197a7.29 7.29 0 003.019 1.613.877.877 0 01.06-.234.232.232 0 00.016-.082c0-.049.017-.098.039-.143.02-.035.042-.07.042-.104 0-.03.018-.063.04-.1a.302.302 0 00.043-.119c.02-.037.04-.055.061-.078a.325.325 0 01.071-.13c.017-.026.017-.038.017-.063.04-.041.081-.078.092-.127a.131.131 0 01.046-.038c.019-.053.069-.104.1-.147l.013-.014c.063-.057.093-.105.144-.143a3.005 3.005 0 00-1.956-.723 3.025 3.025 0 00-1.847.632m1.829-4.17a4.537 4.537 0 00-1.506-3.357 3.977 3.977 0 01-2.617 1.166 5.237 5.237 0 00-.081 1.032c0 1.942.781 3.705 2.031 4.994a4.476 4.476 0 002.173-3.835"/><path fill="#F26F21" d="M230.281 27.654a6.34 6.34 0 00-.7 2.183 3.983 3.983 0 002.617-1.167 4.44 4.44 0 00-1.917-1.016"/><path fill="#F9A51A" d="M236.688 38.014a7.237 7.237 0 002.5-.458 3.32 3.32 0 01-1.406-2.048h-.212c-.726 0-1.417.295-1.895.781.518.428.868 1.043 1.013 1.725"/><path fill="#F26F21" d="M236.688 38.014c-.145-.682-.495-1.297-1.013-1.725a2.723 2.723 0 00-.781 1.521 7.68 7.68 0 001.75.205c.02.001.041-.001.044-.001"/><path fill="#F9A51A" d="M240.968 25.177a7.158 7.158 0 00-4.324-1.456c-1.093 0-2.14.254-3.06.693a3.904 3.904 0 007.384.763m.036 6.237a3.36 3.36 0 00-3.298 3.353c0 .267.011.507.075.741a2.713 2.713 0 012.274 1.641 7.131 7.131 0 003.194-3.551c-1.051-.319-1.874-1.137-2.245-2.184"/><path fill="#F26F21" d="M237.781 35.508a3.325 3.325 0 001.406 2.049c.312-.117.598-.252.868-.408a2.712 2.712 0 00-2.274-1.641"/><path fill="#FFF100" d="M228.563 33.203c0 .494-.125.945-.322 1.352 1.146.018 2.141.678 2.666 1.627.232-.09.43-.195.625-.32a7.155 7.155 0 01-2.031-4.992c0-.355.014-.699.081-1.033-.081.006-.133.006-.185.006-.99 0-1.847-.35-2.553-.938a2.265 2.265 0 01-1.638 1.006c-.081.16-.156.322-.23.484.23-.043.462-.084.699-.084a2.896 2.896 0 012.888 2.892"/><path fill="#F9A51A" d="M230.906 36.182c-.525-.949-1.519-1.609-2.666-1.627-.056.061-.068.131-.132.193-.015.016-.015.037-.015.057a.382.382 0 00-.099.124c-.022.032-.046.04-.058.069-.021.041-.075.078-.087.119-.021.014-.042.037-.063.039a.39.39 0 01-.16.163l-.002.001a.388.388 0 01-.156.146c0 .012-.022.029-.045.041-.03.037-.1.07-.129.098-.027.018-.055.018-.058.031-.061.03-.098.064-.156.105 0 0-.02 0-.04.011-.063.036-.128.067-.197.104a4.35 4.35 0 002.344.666 4.394 4.394 0 001.719-.34"/><path fill="#F9A51A" d="M225.675 30.311c-.237 0-.469.041-.699.083-.171.505-.297 1.052-.297 1.634 0 1.293.556 2.465 1.449 3.283.053-.045.11-.104.172-.156a.125.125 0 00.064-.026.88.88 0 01.167-.126c.004-.004.018-.004.031-.005a1.893 1.893 0 01.273-.149c.057-.025.115-.049.175-.084.031 0 .063-.008.071-.02.075-.018.156-.057.225-.065.007-.005.007-.011.007-.015.081-.016.158-.043.245-.057.033 0 .067-.001.067-.007.081-.017.147-.03.207-.03h.071c.09-.012.182-.021.271-.021 0 0 .029.005.065.007a3.09 3.09 0 00.322-1.354 2.892 2.892 0 00-2.886-2.892"/><path fill="#F26F21" d="M226.128 35.311c.209.203.449.391.716.547a2.982 2.982 0 001.396-1.301.634.634 0 01-.065-.007c-.781 0-1.5.292-2.047.761"/><path fill="#F9A51A" d="M225.206 29.91a2.265 2.265 0 001.638-1.006 1.054 1.054 0 01-.202-.18c-.025-.014-.029-.025-.029-.051a.817.817 0 01-.208-.197 4.685 4.685 0 00-1.199 1.434m6.992-1.24a3.9 3.9 0 001.144-2.787c0-.438-.07-.848-.185-1.239a6.997 6.997 0 00-2.876 3.011c.707.168 1.38.529 1.917 1.015m28.628-7.492a5.043 5.043 0 00-1.639-2.315 4.098 4.098 0 00-1.794 3.4c0 .391.068.771.156 1.134a7.18 7.18 0 013.277-2.219m-12.732-3.588c.268 0 .53.026.779.074a3.129 3.129 0 00-.537-.75 3.41 3.41 0 01-.796.313c.01.142.01.272.019.408.187-.018.379-.045.535-.045"/></svg>