<?xml version="1.0" encoding="UTF-8" standalone="no"?>
<svg width="36px" height="36px" viewBox="0 0 36 36" version="1.1" xmlns="http://www.w3.org/2000/svg" xmlns:xlink="http://www.w3.org/1999/xlink">
    <!-- Generator: sketchtool 3.6.1 (26313) - http://www.bohemiancoding.com/sketch -->
    <title>twitter copy</title>
    <desc>Created with sketchtool.</desc>
    <defs></defs>
    <g id="Symbols" stroke="none" stroke-width="1" fill="none" fill-rule="evenodd">
        <g id="home" transform="translate(-1254.000000, -105.000000)" fill="#00A858">
            <g id="Header">
                <g id="redes_sociais" transform="translate(1203.000000, 105.000000)">
                    <path d="M77.0303069,13.8587172 C77.0375927,14.0360201 77.0421463,14.2160507 77.0421463,14.3960812 C77.0421463,19.8597364 72.8737636,26.1617157 65.252827,26.1617157 C62.9131777,26.1617157 60.7347264,25.480691 58.9005287,24.302309 C59.2274786,24.3404973 59.5571606,24.3623192 59.8904855,24.3623192 C61.83397,24.3623192 63.6162564,23.7012979 65.0369855,22.5920186 C63.2246452,22.556558 61.6946293,21.3627189 61.1673202,19.7188034 C61.4177692,19.7679026 61.6773255,19.7924522 61.9468997,19.7924522 C62.3221179,19.7924522 62.6900503,19.743353 63.0361254,19.6478822 C61.1427307,19.2687269 59.7119836,17.597534 59.7119836,15.5944666 C59.7119836,15.5762817 59.7119836,15.5599152 59.7165372,15.5408211 C60.271168,15.851783 60.9132283,16.0363598 61.5917175,16.0563632 C60.4815452,15.318056 59.7475018,14.050568 59.7475018,12.6148696 C59.7475018,11.8583775 59.9542361,11.1482569 60.3066862,10.5363348 C62.3494397,13.0394872 65.4049179,14.6852212 68.8456323,14.8597963 C68.7755066,14.5551992 68.7390776,14.2406003 68.7390776,13.9150904 C68.7390776,11.6319754 70.5951327,9.77984271 72.8819601,9.77984271 C74.0750082,9.77984271 75.150573,10.2826554 75.9064737,11.0837005 C76.8490728,10.9009422 77.7379392,10.5581567 78.5384654,10.0798937 C78.2269979,11.0491492 77.5730982,11.8583775 76.7151964,12.3711919 C77.5530623,12.2711749 78.35541,12.0484098 79.0949177,11.7210815 C78.5421083,12.5475855 77.8381188,13.2749817 77.0303069,13.8587172 M68.9986339,0 C59.0735662,0 51,8.07629841 51,17.9986339 C51,27.9246123 59.0735662,36 68.9986339,36 C78.925523,36 87,27.9246123 87,17.9986339 C87,8.07629841 78.925523,0 68.9986339,0" id="twitter-copy"></path>
                </g>
            </g>
        </g>
    </g>
</svg>